# xmcd
#
# Track frame offsets: 
#        150
#        4877
#        33607
#        63933
#        95181
#        130507
#        156036
#        192039
#        227797
#        278699
#        332550
#
# Disc length: 4440 seconds
#
# Revision: 1
# Processed by: cddbd v1.5.2PL0 Copyright (c) Steve Scherf et al.
# Submitted via: ExactAudioCopy v1.0b3
#
DISCID=8d11560b
DTITLE=Mondo Grosso - Live on the Next Wave 1 (Limited Edition)
DYEAR=2004
DGENRE=Electronic
TTITLE0=Opening
TTITLE1=Porcelain - Next Wave (Live Breaks)
TTITLE2=Tornado
TTITLE3=Anger (Norman Cook Club Mix) - Waitin' For T (Extra Keys)
TTITLE4=Motormouth
TTITLE5=Down and Dirty (Main Vocal)
TTITLE6=Dancefloor Combat - Shiny Disco Ball (Main Mix)
TTITLE7=Thrill Me -Such A Thrill- (Junior Jack Club Mix) - Star Suite 
TTITLE7=(Shelter Vocal Mix-Fearless Edit)
TTITLE8=Everything Needs Love
TTITLE9=Data Track
TTITLE10=Data Track
EXTD=
EXTT0=
EXTT1=
EXTT2=
EXTT3=
EXTT4=
EXTT5=
EXTT6=
EXTT7=
EXTT8=
EXTT9=
EXTT10=
PLAYORDER=
